<svg width="28" height="28" viewBox="0 0 28 28" fill="none" xmlns="http://www.w3.org/2000/svg">
<path fill-rule="evenodd" clip-rule="evenodd" d="M7.21204 12.0556C6.07132 12.0556 5.83325 12.2794 5.83325 13.3518V15.2963C5.83325 16.3688 6.07132 16.5926 7.21204 16.5926H9.96961V24.3704C9.96961 25.4428 10.2077 25.6667 11.3484 25.6667H14.106C15.2467 25.6667 15.4847 25.4428 15.4847 24.3704V16.5926H18.5811C19.4463 16.5926 19.6692 16.4345 19.9069 15.6525L20.4978 13.708C20.9048 12.3683 20.654 12.0556 19.172 12.0556H15.4847V8.81486C15.4847 8.09894 16.102 7.51855 16.8635 7.51855H20.7878C21.9285 7.51855 22.1666 7.29473 22.1666 6.22226V3.62967C22.1666 2.5572 21.9285 2.33337 20.7878 2.33337H16.8635C13.0561 2.33337 9.96961 5.23524 9.96961 8.81486V12.0556H7.21204Z" fill="white"/>
</svg>
