<svg width="28" height="28" viewBox="0 0 28 28" fill="none" xmlns="http://www.w3.org/2000/svg">
<path d="M13.9999 25.6667C20.4432 25.6667 25.6666 20.4433 25.6666 14C25.6666 7.55672 20.4432 2.33337 13.9999 2.33337C7.55659 2.33337 2.33325 7.55672 2.33325 14C2.33325 15.6088 2.65883 17.1414 3.24771 18.5357C3.57316 19.3062 3.73589 19.6915 3.75604 19.9827C3.77619 20.2739 3.69048 20.5942 3.51908 21.2348L2.33325 25.6667L6.76515 24.4809C7.40578 24.3095 7.7261 24.2238 8.01727 24.244C8.30846 24.264 8.69374 24.4268 9.46433 24.7523C10.8586 25.3411 12.3912 25.6667 13.9999 25.6667Z" fill="white" stroke="white" stroke-width="1.75" stroke-linejoin="round"/>
<path d="M10.0196 14.4401L11.0357 13.1782C11.4639 12.6463 11.9933 12.1511 12.0348 11.4429C12.0452 11.2641 11.9194 10.461 11.6677 8.8548C11.5688 8.22357 10.9794 8.16663 10.469 8.16663C9.80374 8.16663 9.47114 8.16663 9.14086 8.31749C8.72341 8.50817 8.29484 9.04432 8.20078 9.49351C8.12637 9.84891 8.18167 10.0938 8.29227 10.5836C8.76202 12.6639 9.86403 14.7184 11.5728 16.4272C13.2816 18.136 15.3361 19.2381 17.4164 19.7078C17.9062 19.8184 18.1511 19.8737 18.5066 19.7992C18.9557 19.7052 19.4918 19.2767 19.6826 18.8591C19.8334 18.5288 19.8334 18.1963 19.8334 17.5311C19.8334 17.0206 19.7765 16.4313 19.1452 16.3324C17.539 16.0806 16.736 15.9548 16.5571 15.9652C15.8489 16.0067 15.3538 16.5361 14.8219 16.9643L13.5599 17.9804" fill="#060606"/>
<path d="M10.0196 14.4401L11.0357 13.1782C11.4639 12.6463 11.9933 12.1511 12.0348 11.4429C12.0452 11.2641 11.9194 10.461 11.6677 8.8548C11.5688 8.22357 10.9794 8.16663 10.469 8.16663C9.80374 8.16663 9.47114 8.16663 9.14086 8.31749C8.72341 8.50817 8.29484 9.04432 8.20078 9.49351C8.12637 9.84891 8.18167 10.0938 8.29227 10.5836C8.76202 12.6639 9.86403 14.7184 11.5728 16.4272C13.2816 18.136 15.3361 19.2381 17.4164 19.7078C17.9062 19.8184 18.1511 19.8737 18.5066 19.7992C18.9557 19.7052 19.4918 19.2767 19.6826 18.8591C19.8334 18.5288 19.8334 18.1963 19.8334 17.5311C19.8334 17.0206 19.7765 16.4313 19.1452 16.3324C17.539 16.0806 16.736 15.9548 16.5571 15.9652C15.8489 16.0067 15.3538 16.5361 14.8219 16.9643L13.5599 17.9804" stroke="#060606" stroke-width="1.75"/>
</svg>
